<?xml version="1.0" encoding="UTF-8"?>
<svg width="33px" height="31px" viewBox="0 0 33 31" version="1.1" xmlns="http://www.w3.org/2000/svg" xmlns:xlink="http://www.w3.org/1999/xlink">
    <!-- Generator: Sketch 63.1 (92452) - https://sketch.com -->
    <title>Group</title>
    <desc>Created with Sketch.</desc>
    <g id="Symbols" stroke="none" stroke-width="1" fill="none" fill-rule="evenodd">
        <g id="Footer" transform="translate(-101.000000, -55.000000)" fill="#262626" fill-rule="nonzero">
            <g id="logo">
                <g transform="translate(101.000000, 55.000000)">
                    <g id="Group">
                        <path d="M16.4810269,0 C25.5832467,0 32.9620538,6.93958638 32.9620538,15.5 C32.9620538,24.0604136 25.5832467,31 16.4810269,31 C7.37880707,31 0,24.0604136 0,15.5 C0,6.93958638 7.37880707,0 16.4810269,0 Z M16.4810269,1.68478261 C8.36817879,1.68478261 1.79141596,7.87006612 1.79141596,15.5 C1.79141596,23.1299339 8.36817879,29.3152174 16.4810269,29.3152174 C24.593875,29.3152174 31.1706378,23.1299339 31.1706378,15.5 C31.1706378,7.87006612 24.593875,1.68478261 16.4810269,1.68478261 Z" id="Oval"></path>
                        <path d="M10.1933143,21.5163521 C10.8900538,21.5163521 11.4726722,21.3920775 11.9411695,21.1435282 C12.4096667,20.8949788 12.8271098,20.4967351 13.1934987,19.9487968 L13.1934987,19.9487968 L13.1934987,21.2282609 L15.6891475,21.2282609 L15.6891475,8.75560462 L13.0853839,8.75560462 L13.0853839,13.161706 C12.7970779,12.7267447 12.4216795,12.3864016 11.9591886,12.1406767 C11.4966977,11.8949519 10.9681367,11.7720894 10.3735055,11.7720894 C9.08213489,11.7720894 8.05053996,12.2239973 7.27872075,13.1278129 C6.50690154,14.0316286 6.12099194,15.2715507 6.12099194,16.8475793 C6.12099194,18.2146005 6.51290792,19.3344846 7.29673988,20.2072316 C8.08057183,21.0799786 9.04609664,21.5163521 10.1933143,21.5163521 Z M10.9320984,19.4827669 C10.205327,19.4827669 9.66325168,19.2271565 9.30587236,18.7159357 C8.94849304,18.204715 8.76980338,17.5226166 8.76980338,16.6696406 C8.76980338,15.8788019 8.94548985,15.2164745 9.2968628,14.6826583 C9.64823574,14.1488422 10.1993207,13.8819341 10.9501176,13.8819341 C11.4426403,13.8819341 11.8750993,14.0288042 12.2474946,14.3225443 C12.8541385,14.8083452 13.1574604,15.6161304 13.1574604,16.7459 C13.1574604,17.5536853 12.9682596,18.2117761 12.589858,18.7201724 C12.2114563,19.2285687 11.6588698,19.4827669 10.9320984,19.4827669 Z M19.8435074,21.2282609 L19.8435074,16.2290304 C19.8435074,15.4381917 20.0191939,14.8295284 20.3705669,14.4030403 C20.7219398,13.9765523 21.2369865,13.7633083 21.9157069,13.7633083 C22.5704018,13.7633083 23.0148735,13.9779645 23.2491221,14.407277 C23.4293134,14.7123148 23.519409,15.113383 23.519409,15.6104816 L23.519409,15.6104816 L23.519409,21.2282609 L26.1411918,21.2282609 L26.1410769,15.7178836 C26.1390083,14.9384614 26.1090148,14.3730813 26.0510962,14.0217431 C25.9910324,13.6573924 25.8258571,13.3029272 25.5555702,12.9583475 C25.2372323,12.5516304 24.8303004,12.2494171 24.3347745,12.0517074 C23.8392485,11.8539977 23.2881636,11.7551429 22.6815197,11.7551429 C22.1409459,11.7551429 21.6258993,11.8610588 21.1363797,12.0728906 C20.6468601,12.2847224 20.2159027,12.6589585 19.8435074,13.1955991 L19.8435074,13.1955991 L19.8435074,8.78102444 L17.2847916,8.78102444 L17.2847916,21.2282609 L19.8435074,21.2282609 Z" id="dh"></path>
                    </g>
                </g>
            </g>
        </g>
    </g>
</svg>