<?xml version="1.0" encoding="UTF-8"?>
<svg width="203px" height="43px" viewBox="0 0 203 43" version="1.1" xmlns="http://www.w3.org/2000/svg" xmlns:xlink="http://www.w3.org/1999/xlink">
    <!-- Generator: Sketch 63.1 (92452) - https://sketch.com -->
    <title>logo</title>
    <desc>Created with Sketch.</desc>
    <g id="Symbols" stroke="none" stroke-width="1" fill="none" fill-rule="evenodd">
        <g id="Header" transform="translate(-105.000000, -33.000000)">
            <g id="logo">
                <g transform="translate(105.000000, 33.000000)">
                    <g id="Group">
                        <path d="M55.990178,27.679584 C56.7926891,27.679584 57.4637544,27.5339807 58.0033739,27.242774 C58.5429934,26.9515673 59.0238083,26.4849747 59.4458184,25.8429963 L59.4458184,25.8429963 L59.4458184,27.342049 L62.3203301,27.342049 L62.3203301,12.7287677 L59.3212908,12.7287677 L59.3212908,17.8910682 C58.9892173,17.3814565 58.5568298,16.9827018 58.0241285,16.6948043 C57.4914272,16.4069068 56.8826256,16.262958 56.1977239,16.262958 C54.7103111,16.262958 53.5221104,16.7924247 52.6331219,17.8513582 C51.7441333,18.9102916 51.299639,20.3630159 51.299639,22.209531 C51.299639,23.8111678 51.7510515,25.1232525 52.6538765,26.1457851 C53.5567014,27.1683177 54.6688019,27.679584 55.990178,27.679584 Z M56.8411165,25.2969838 C56.0040144,25.2969838 55.3796469,24.9975042 54.9680141,24.398545 C54.5563812,23.7995858 54.3505648,23.0004219 54.3505648,22.0010535 C54.3505648,21.0744868 54.5529221,20.2984871 54.9576368,19.6730546 C55.3623514,19.047622 55.9970962,18.7349057 56.8618711,18.7349057 C57.4291634,18.7349057 57.9272737,18.9069824 58.3562021,19.2511358 C59.0549402,19.8203125 59.4043092,20.7667342 59.4043092,22.090401 C59.4043092,23.0368228 59.1863859,23.8078587 58.7505394,24.4035087 C58.3146929,24.9991588 57.6782185,25.2969838 56.8411165,25.2969838 Z M68.7034647,27.699439 C70.4468509,27.699439 71.8028179,27.1732815 72.7713658,26.1209664 C73.3940037,25.459133 73.7433727,24.8072271 73.8194729,24.1652487 L73.8194729,24.1652487 L70.799679,24.1652487 C70.6405605,24.4829287 70.4572282,24.7311163 70.2496822,24.9098113 C69.8691813,25.240728 69.37453,25.4061863 68.7657285,25.4061863 C68.191518,25.4061863 67.7003258,25.2705105 67.2921521,24.9991588 C66.6210868,24.5623487 66.2647995,23.8012403 66.2232903,22.7158336 L66.2232903,22.7158336 L73.9647551,22.7158336 C73.9785915,21.7826485 73.9474596,21.0678684 73.8713594,20.5714934 C73.7399136,19.7243467 73.4528084,18.9797841 73.0100436,18.3378057 C72.5188515,17.609789 71.8962136,17.0770131 71.1421299,16.7394781 C70.3880462,16.401943 69.5405668,16.2331755 68.5996917,16.2331755 C67.0154241,16.2331755 65.7269096,16.7328597 64.734148,17.7322282 C63.7413864,18.7315966 63.2450056,20.167775 63.2450056,22.0407635 C63.2450056,24.0395004 63.7950025,25.4822972 64.8949961,26.3691539 C65.9949898,27.2560106 67.2644793,27.699439 68.7034647,27.699439 Z M70.8930747,20.8494634 L66.2959314,20.8494634 C66.3927862,20.14792 66.6297345,19.59198 67.0067764,19.1816433 C67.3838182,18.7713066 67.91479,18.5661382 68.5996917,18.5661382 C69.2292478,18.5661382 69.7567605,18.7597245 70.1822298,19.146897 C70.607699,19.5340696 70.8446473,20.1015917 70.8930747,20.8494634 L70.8930747,20.8494634 Z M81.157319,27.342049 L85.2355974,16.5210731 L82.060144,16.5210731 L79.6526107,24.5027837 L77.2969639,16.5210731 L73.9762283,16.5210731 L78.0337521,27.342049 L81.157319,27.342049 Z M90.6017567,27.699439 C92.3451428,27.699439 93.7011099,27.1732815 94.6696577,26.1209664 C95.2922957,25.459133 95.6416647,24.8072271 95.7177649,24.1652487 L95.7177649,24.1652487 L92.697971,24.1652487 C92.5388524,24.4829287 92.3555201,24.7311163 92.1479742,24.9098113 C91.7674732,25.240728 91.272822,25.4061863 90.6640205,25.4061863 C90.0898099,25.4061863 89.5986178,25.2705105 89.1904441,24.9991588 C88.5193788,24.5623487 88.1630915,23.8012403 88.1215823,22.7158336 L88.1215823,22.7158336 L95.8630471,22.7158336 C95.8768835,21.7826485 95.8457516,21.0678684 95.7696514,20.5714934 C95.6382056,19.7243467 95.3511003,18.9797841 94.9083356,18.3378057 C94.4171435,17.609789 93.7945056,17.0770131 93.0404219,16.7394781 C92.2863382,16.401943 91.4388588,16.2331755 90.4979837,16.2331755 C88.9137161,16.2331755 87.6252015,16.7328597 86.63244,17.7322282 C85.6396784,18.7315966 85.1432976,20.167775 85.1432976,22.0407635 C85.1432976,24.0395004 85.6932944,25.4822972 86.7932881,26.3691539 C87.8932817,27.2560106 89.1627713,27.699439 90.6017567,27.699439 Z M92.7913667,20.8494634 L88.1942234,20.8494634 C88.2910782,20.14792 88.5280265,19.59198 88.9050684,19.1816433 C89.2821102,18.7713066 89.813082,18.5661382 90.4979837,18.5661382 C91.1275398,18.5661382 91.6550525,18.7597245 92.0805217,19.146897 C92.505991,19.5340696 92.7429393,20.1015917 92.7913667,20.8494634 L92.7913667,20.8494634 Z M100.004685,27.342049 L100.004685,12.7089127 L97.0471551,12.7089127 L97.0471551,27.342049 L100.004685,27.342049 Z M107.103853,27.719294 C109.047867,27.719294 110.49723,27.155081 111.451941,26.0266551 C112.406653,24.8982292 112.884009,23.5398162 112.884009,21.951416 C112.884009,20.3894892 112.406653,19.0360399 111.451941,17.8910682 C110.49723,16.7460964 109.047867,16.1736105 107.103853,16.1736105 C105.159839,16.1736105 103.710477,16.7460964 102.755765,17.8910682 C101.801054,19.0360399 101.323698,20.3894892 101.323698,21.951416 C101.323698,23.5398162 101.801054,24.8982292 102.755765,26.0266551 C103.710477,27.155081 105.159839,27.719294 107.103853,27.719294 Z M107.093476,25.3466213 C106.228701,25.3466213 105.562825,25.0521054 105.095846,24.4630737 C104.628868,23.874042 104.395378,23.0368228 104.395378,21.951416 C104.395378,20.8660093 104.628868,20.0304446 105.095846,19.4447221 C105.562825,18.8589995 106.228701,18.5661382 107.093476,18.5661382 C107.958251,18.5661382 108.622398,18.8589995 109.085917,19.4447221 C109.549437,20.0304446 109.781196,20.8660093 109.781196,21.951416 C109.781196,23.0368228 109.549437,23.874042 109.085917,24.4630737 C108.622398,25.0521054 107.958251,25.3466213 107.093476,25.3466213 Z M116.97376,31.6009468 L116.97376,25.9621264 C117.285079,26.4187914 117.603316,26.7662539 117.928472,27.0045139 C118.523437,27.4347057 119.270602,27.6498015 120.169968,27.6498015 C121.581281,27.6498015 122.734891,27.1501173 123.630797,26.1507489 C124.526704,25.1513805 124.974658,23.6986562 124.974658,21.792576 C124.974658,19.9857708 124.516327,18.6157757 123.599665,17.6825907 C122.683004,16.7494056 121.563985,16.282813 120.242609,16.282813 C119.336325,16.282813 118.554569,16.5243822 117.89734,17.0075206 C117.537594,17.2788723 117.198602,17.649499 116.880365,18.1194007 L116.880365,18.1194007 L116.880365,16.5210731 L114.047362,16.5210731 L114.047362,31.6009468 L116.97376,31.6009468 Z M119.391671,25.2771288 C118.824379,25.2771288 118.333186,25.1282163 117.918094,24.8303913 C117.219356,24.3207796 116.869987,23.437232 116.869987,22.1797485 C116.869987,21.3855485 116.97376,20.7303334 117.181306,20.2141034 C117.582562,19.2412083 118.31935,18.7547607 119.391671,18.7547607 C120.284119,18.7547607 120.929241,19.0757499 121.327037,19.7177283 C121.724833,20.3597067 121.923732,21.0976509 121.923732,21.931561 C121.923732,22.9441661 121.707538,23.754912 121.275151,24.3637987 C120.842763,24.9726854 120.214937,25.2771288 119.391671,25.2771288 Z M130.807795,27.699439 C132.551181,27.699439 133.907148,27.1732815 134.875696,26.1209664 C135.498334,25.459133 135.847703,24.8072271 135.923803,24.1652487 L135.923803,24.1652487 L132.90401,24.1652487 C132.744891,24.4829287 132.561559,24.7311163 132.354013,24.9098113 C131.973512,25.240728 131.478861,25.4061863 130.870059,25.4061863 C130.295849,25.4061863 129.804656,25.2705105 129.396483,24.9991588 C128.725417,24.5623487 128.36913,23.8012403 128.327621,22.7158336 L128.327621,22.7158336 L136.069086,22.7158336 C136.082922,21.7826485 136.05179,21.0678684 135.97569,20.5714934 C135.844244,19.7243467 135.557139,18.9797841 135.114374,18.3378057 C134.623182,17.609789 134.000544,17.0770131 133.24646,16.7394781 C132.492377,16.401943 131.644897,16.2331755 130.704022,16.2331755 C129.119755,16.2331755 127.83124,16.7328597 126.838479,17.7322282 C125.845717,18.7315966 125.349336,20.167775 125.349336,22.0407635 C125.349336,24.0395004 125.899333,25.4822972 126.999327,26.3691539 C128.09932,27.2560106 129.36881,27.699439 130.807795,27.699439 Z M132.997405,20.8494634 L128.400262,20.8494634 C128.497117,20.14792 128.734065,19.59198 129.111107,19.1816433 C129.488149,18.7713066 130.019121,18.5661382 130.704022,18.5661382 C131.333578,18.5661382 131.861091,18.7597245 132.28656,19.146897 C132.71203,19.5340696 132.948978,20.1015917 132.997405,20.8494634 L132.997405,20.8494634 Z M140.138083,27.342049 L140.138083,22.169821 C140.138083,21.3028193 140.252233,20.6608409 140.480534,20.2438859 C140.888707,19.5026325 141.687759,19.1320058 142.87769,19.1320058 C142.967626,19.1320058 143.085235,19.1353149 143.230518,19.1419333 C143.3758,19.1485516 143.541837,19.1617883 143.728628,19.1816433 L143.728628,19.1816433 L143.728628,16.282813 C143.597182,16.2761947 143.512434,16.2712309 143.474384,16.2679218 C143.436334,16.2646126 143.389636,16.262958 143.334291,16.262958 C142.448761,16.262958 141.729268,16.4846722 141.175813,16.9281006 C140.836821,17.1928339 140.439024,17.6858998 139.982423,18.4072982 L139.982423,18.4072982 L139.982423,16.5210731 L137.159798,16.5210731 L137.159798,27.342049 L140.138083,27.342049 Z M147.974039,27.342049 L147.974039,20.8097534 L153.951363,20.8097534 L153.951363,27.342049 L157.126816,27.342049 L157.126816,12.7089127 L153.951363,12.7089127 L153.951363,18.2881682 L147.974039,18.2881682 L147.974039,12.7089127 L144.808963,12.7089127 L144.808963,27.342049 L147.974039,27.342049 Z M161.839206,27.679584 C162.641717,27.679584 163.36121,27.5041982 163.997684,27.1534265 C164.530385,26.8556014 165.000823,26.4949022 165.408997,26.0713289 C165.429751,26.3162072 165.457424,26.5346122 165.492015,26.7265439 C165.526606,26.9184756 165.58887,27.123644 165.678806,27.342049 L165.678806,27.342049 L168.895769,27.342049 L168.895769,26.9250939 C168.702059,26.8390556 168.556777,26.7298531 168.459922,26.5974864 C168.363068,26.4651197 168.304263,26.213623 168.283508,25.8429963 C168.269672,25.3532396 168.262754,24.9362846 168.262754,24.5921312 L168.262754,19.6283808 C168.262754,18.324569 167.781939,17.4377123 166.820309,16.9678106 C165.85868,16.4979089 164.758686,16.262958 163.520328,16.262958 C161.617824,16.262958 160.275693,16.7394781 159.493936,17.6925182 C159.002744,18.3014049 158.726016,19.0790591 158.663753,20.0254809 L158.663753,20.0254809 L161.51751,20.0254809 C161.586692,19.6085258 161.725056,19.2776091 161.932602,19.0327308 C162.223166,18.7018141 162.717817,18.5363557 163.416555,18.5363557 C164.039193,18.5363557 164.51136,18.6207395 164.833057,18.789507 C165.154753,18.9582745 165.315601,19.2643725 165.315601,19.7078008 C165.315601,20.0718092 165.104596,20.3398517 164.682586,20.5119284 C164.447367,20.6112034 164.056489,20.6939326 163.509951,20.7601159 L163.509951,20.7601159 L162.503353,20.8792459 C161.36185,21.0182309 160.497075,21.2498726 159.909028,21.574171 C158.836708,22.169821 158.300547,23.1327886 158.300547,24.4630737 C158.300547,25.4889155 158.63435,26.281461 159.301956,26.8407102 C159.969563,27.3999594 160.815312,27.679584 161.839206,27.679584 Z M162.710899,25.6245913 C162.309643,25.6245913 161.968922,25.5170434 161.688735,25.3019476 C161.408548,25.0868517 161.268455,24.7377346 161.268455,24.2545962 C161.268455,23.7118928 161.496755,23.3114836 161.953356,23.0533686 C162.223166,22.9011469 162.66939,22.7720894 163.292028,22.6661961 L163.292028,22.6661961 L163.956175,22.5470661 C164.288248,22.4875011 164.54941,22.4229723 164.739661,22.3534798 C164.929911,22.2839873 165.118432,22.1929852 165.305224,22.0804735 L165.305224,22.0804735 L165.305224,23.1327886 C165.284469,24.0792104 165.006012,24.7311163 164.469851,25.0885063 C163.933691,25.4458963 163.347373,25.6245913 162.710899,25.6245913 Z M176.160974,27.6299465 C177.648387,27.6299465 178.807185,27.0773156 179.637369,25.9720539 C180.467553,24.8667921 180.882645,23.4736328 180.882645,21.792576 C180.882645,20.1710842 180.462364,18.8474174 179.621803,17.8215757 C178.781242,16.7957339 177.617255,16.282813 176.129842,16.282813 C175.306576,16.282813 174.628593,16.4482714 174.095892,16.7791881 C173.646209,17.0439214 173.234576,17.4277848 172.860993,17.9307782 L172.860993,17.9307782 L172.860993,12.7287677 L169.91384,12.7287677 L169.91384,27.342049 L172.809107,27.342049 L172.809107,25.9819814 C173.203444,26.5114481 173.570108,26.8820748 173.9091,27.0938615 C174.476393,27.4512515 175.227017,27.6299465 176.160974,27.6299465 Z M175.372299,25.2969838 C174.493688,25.2969838 173.839918,24.9925404 173.41099,24.3836537 C172.982062,23.774767 172.767597,23.0070403 172.767597,22.0804735 C172.767597,21.2928918 172.87137,20.6509134 173.078916,20.1545384 C173.480172,19.2213533 174.21696,18.7547607 175.289281,18.7547607 C176.347765,18.7547607 177.074176,19.2312808 177.468514,20.1843209 C177.67606,20.6873142 177.779833,21.3226743 177.779833,22.090401 C177.779833,23.0500594 177.568828,23.8244045 177.146817,24.4134362 C176.724807,25.0024679 176.133301,25.2969838 175.372299,25.2969838 Z M185.169565,15.2304979 L185.169565,12.6195652 L182.170526,12.6195652 L182.170526,15.2304979 L185.169565,15.2304979 Z M185.169565,27.342049 L185.169565,16.5210731 L182.170526,16.5210731 L182.170526,27.342049 L185.169565,27.342049 Z M188.076305,26.7960364 C188.588251,27.3056481 189.542963,27.5372898 190.940439,27.4909615 L190.940439,27.4909615 L192.341374,27.441324 L192.341374,25.3267663 C192.24452,25.3333846 192.145935,25.3383484 192.045621,25.3416576 C191.945308,25.3449667 191.850182,25.3466213 191.760246,25.3466213 C191.158362,25.3466213 190.798616,25.2920201 190.681007,25.1828175 C190.563397,25.073615 190.504593,24.7972996 190.504593,24.3538712 L190.504593,24.3538712 L190.504593,18.6356307 L192.341374,18.6356307 L192.341374,16.6203481 L190.504593,16.6203481 L190.504593,13.6023878 L187.578194,13.6023878 L187.578194,16.6203481 L186.000845,16.6203481 L186.000845,18.6356307 L187.578194,18.6356307 L187.578194,25.2969838 C187.578194,25.9720539 187.744231,26.4717381 188.076305,26.7960364 Z M197.883948,27.7093665 C199.627334,27.7093665 200.915849,27.3701769 201.749492,26.6917977 C202.583135,26.0134184 202.999956,25.1381438 202.999956,24.0659737 C202.999956,23.2519186 202.709392,22.5735394 202.128263,22.030836 C201.540216,21.494751 200.658146,21.0943418 199.482052,20.8296084 C197.717911,20.4589817 196.690558,20.1975575 196.399994,20.0453359 C196.10943,19.8997325 195.964148,19.6647817 195.964148,19.3404833 C195.964148,19.0823683 196.100782,18.8573449 196.374051,18.6654132 C196.64732,18.4734816 197.10565,18.3775157 197.749043,18.3775157 C198.530799,18.3775157 199.084255,18.5694474 199.409411,18.9533108 C199.582366,19.1650974 199.689598,19.452995 199.731107,19.8170033 L199.731107,19.8170033 L202.688637,19.8170033 C202.557191,18.4933366 202.046974,17.5618061 201.157986,17.0224118 C200.268997,16.4830176 199.118846,16.2133205 197.707534,16.2133205 C196.220121,16.2133205 195.066511,16.5723651 194.246705,17.2904544 C193.426898,18.0085436 193.016995,18.8672724 193.016995,19.8666408 C193.016995,20.7137876 193.279886,21.3623843 193.805669,21.812431 C194.331453,22.269096 195.234278,22.6496502 196.514144,22.9540936 C198.292122,23.357812 199.319474,23.6424003 199.596202,23.8078587 C199.87293,23.973317 200.011294,24.2148862 200.011294,24.5325662 C200.011294,24.8634829 199.840069,25.1116705 199.497618,25.2771288 C199.155167,25.4425871 198.693377,25.5253163 198.112248,25.5253163 C197.122946,25.5253163 196.444962,25.3366938 196.078298,24.9594488 C195.870752,24.7476621 195.735847,24.3902721 195.673583,23.8872787 L195.673583,23.8872787 L192.674544,23.8872787 C192.674544,24.9991588 193.098284,25.9141434 193.945763,26.6322327 C194.793242,27.3503219 196.105971,27.7093665 197.883948,27.7093665 Z" id="developerHabits" fill="#262626" fill-rule="nonzero"></path>
                        <ellipse id="Oval" fill="#E8DE51" cx="22.4741276" cy="21.5" rx="22.4741276" ry="21.5"></ellipse>
                        <path d="M22.4741276,0 C34.8862455,0 44.9482551,9.62587788 44.9482551,21.5 C44.9482551,33.3741221 34.8862455,43 22.4741276,43 C10.0620096,43 0,33.3741221 0,21.5 C0,9.62587788 10.0620096,0 22.4741276,0 Z M22.4741276,2.33695652 C11.4111529,2.33695652 2.44283995,10.9165433 2.44283995,21.5 C2.44283995,32.0834567 11.4111529,40.6630435 22.4741276,40.6630435 C33.5371022,40.6630435 42.5054152,32.0834567 42.5054152,21.5 C42.5054152,10.9165433 33.5371022,2.33695652 22.4741276,2.33695652 Z" id="Oval" fill="#262626" fill-rule="nonzero"></path>
                        <path d="M13.899974,29.8452626 C14.8500734,29.8452626 15.644553,29.6728816 16.2834129,29.3281197 C16.9222728,28.9833577 17.4915133,28.4309551 17.9911346,27.6709117 L17.9911346,27.6709117 L17.9911346,29.4456522 L21.3942921,29.4456522 L21.3942921,12.1448709 L17.8437053,12.1448709 L17.8437053,18.25656 C17.4505608,17.6532265 16.9386538,17.1811377 16.3079844,16.8402936 C15.677315,16.4994494 14.95655,16.3290273 14.1456894,16.3290273 C12.3847294,16.3290273 10.978009,16.9558672 9.9255283,18.209547 C8.87304756,19.4632268 8.34680719,21.1831187 8.34680719,23.3692229 C8.34680719,25.2654136 8.88123807,26.8188012 9.95009983,28.0293858 C11.0189616,29.2399703 12.3355863,29.8452626 13.899974,29.8452626 Z M14.907407,27.0244831 C13.9163551,27.0244831 13.1771614,26.6699267 12.6898259,25.9608141 C12.2024905,25.2517015 11.9588228,24.305565 11.9588228,23.1224047 C11.9588228,22.0254349 12.1983953,21.1067226 12.6775402,20.366268 C13.1566851,19.6258134 13.9081645,19.255586 14.9319785,19.255586 C15.6036004,19.255586 16.1933173,19.459309 16.701129,19.8667549 C17.5283706,20.5406078 17.9419915,21.6610842 17.9419915,23.2281839 C17.9419915,24.3486602 17.6839904,25.2614958 17.1679881,25.9666907 C16.6519859,26.6718856 15.8984588,27.0244831 14.907407,27.0244831 Z M27.0593283,29.4456522 L27.0593283,22.5112358 C27.0593283,21.414266 27.2989008,20.569991 27.7780457,19.9784108 C28.2571906,19.3868306 28.959527,19.0910406 29.8850548,19.0910406 C30.7778206,19.0910406 31.3839184,19.3887895 31.7033484,19.9842874 C31.9490637,20.4074044 32.0719214,20.9637248 32.0719214,21.6532487 L32.0719214,21.6532487 L32.0719214,29.4456522 L35.6470797,29.4456522 L35.646923,21.8022256 C35.6441023,20.7210917 35.603202,19.9368547 35.524222,19.4495146 C35.4423169,18.944125 35.2170778,18.4524474 34.8485048,17.974482 C34.4144077,17.4103261 33.8595006,16.9911269 33.1837833,16.7168844 C32.5080661,16.442642 31.7565867,16.3055208 30.929345,16.3055208 C30.192199,16.3055208 29.4898626,16.4524364 28.8223359,16.7462676 C28.1548093,17.0400988 27.56714,17.5592006 27.0593283,18.3035729 L27.0593283,18.3035729 L27.0593283,12.1801307 L23.5701704,12.1801307 L23.5701704,29.4456522 L27.0593283,29.4456522 Z" id="dh" fill="#262626" fill-rule="nonzero"></path>
                    </g>
                </g>
            </g>
        </g>
    </g>
</svg>