<?xml version="1.0" encoding="UTF-8"?>
<svg width="184px" height="184px" viewBox="0 0 184 184" version="1.1" xmlns="http://www.w3.org/2000/svg" xmlns:xlink="http://www.w3.org/1999/xlink">
    <!-- Generator: Sketch 63.1 (92452) - https://sketch.com -->
    <title>logo</title>
    <desc>Created with Sketch.</desc>
    <g id="Page-1" stroke="none" stroke-width="1" fill="none" fill-rule="evenodd">
        <g id="logo" fill-rule="nonzero">
            <circle id="Oval" fill="#E8DE51" cx="92" cy="92" r="92"></circle>
            <path d="M92,0 C142.810197,0 184,41.189803 184,92 C184,142.810197 142.810197,184 92,184 C41.189803,184 0,142.810197 0,92 C0,41.189803 41.189803,0 92,0 Z M92,10 C46.7126505,10 10,46.7126505 10,92 C10,137.287349 46.7126505,174 92,174 C137.287349,174 174,137.287349 174,92 C174,46.7126505 137.287349,10 92,10 Z" id="Oval" fill="#262626"></path>
            <path d="M56.9008789,127.709961 C60.7902018,127.709961 64.0424805,126.972331 66.6577148,125.49707 C69.2729492,124.02181 71.6031901,121.65804 73.6484375,118.405762 L73.6484375,118.405762 L73.6484375,126 L87.5795898,126 L87.5795898,51.96875 L73.0449219,51.96875 L73.0449219,78.1210938 C71.4355469,75.539388 69.3400065,73.5192871 66.7583008,72.060791 C64.1765951,70.6022949 61.2260742,69.8730469 57.9067383,69.8730469 C50.6980794,69.8730469 44.9395345,72.5553385 40.6311035,77.9199219 C36.3226725,83.2845052 34.168457,90.644043 34.168457,99.9985352 C34.168457,108.112467 36.3562012,114.759521 40.7316895,119.939697 C45.1071777,125.119873 50.4969076,127.709961 56.9008789,127.709961 Z M61.0249023,115.639648 C56.9679362,115.639648 53.9419759,114.122477 51.9470215,111.088135 C49.9520671,108.053792 48.9545898,104.005208 48.9545898,98.9423828 C48.9545898,94.2483724 49.9353027,90.3171387 51.8967285,87.1486816 C53.8581543,83.9802246 56.9344076,82.3959961 61.1254883,82.3959961 C63.8748372,82.3959961 66.2888997,83.2677409 68.3676758,85.0112305 C71.754069,87.894694 73.4472656,92.6892904 73.4472656,99.3950195 C73.4472656,104.189616 72.3911133,108.095703 70.2788086,111.113281 C68.1665039,114.130859 65.0818685,115.639648 61.0249023,115.639648 Z M110.76996,126 L110.76996,96.3271484 C110.76996,91.633138 111.750673,88.0204264 113.712098,85.4890137 C115.673524,82.9576009 118.548606,81.6918945 122.337343,81.6918945 C125.991965,81.6918945 128.473085,82.9659831 129.780702,85.5141602 C130.786561,87.324707 131.289491,89.7052409 131.289491,92.6557617 L131.289491,92.6557617 L131.289491,126 L145.924745,126 L145.924103,93.2932443 C145.912557,88.6669969 145.745127,85.3111921 145.421815,83.2258301 C145.086529,81.0632324 144.164491,78.9593099 142.655702,76.9140625 C140.878684,74.5 138.607118,72.7062174 135.841005,71.5327148 C133.074891,70.3592122 129.998638,69.7724609 126.612245,69.7724609 C123.594667,69.7724609 120.719585,70.401123 117.987001,71.6584473 C115.254416,72.9157715 112.848736,75.1370443 110.76996,78.3222656 L110.76996,78.3222656 L110.76996,52.1196289 L96.4867567,52.1196289 L96.4867567,126 L110.76996,126 Z" id="dh" fill="#262626"></path>
        </g>
    </g>
</svg>