<?xml version="1.0" encoding="UTF-8"?>
<svg width="38px" height="32px" viewBox="0 0 38 32" version="1.1" xmlns="http://www.w3.org/2000/svg" xmlns:xlink="http://www.w3.org/1999/xlink">
    <!-- Generator: Sketch 63.1 (92452) - https://sketch.com -->
    <title>Shape</title>
    <desc>Created with Sketch.</desc>
    <g id="Symbols" stroke="none" stroke-width="1" fill="none" fill-rule="evenodd">
        <g id="Newsletter" transform="translate(-529.000000, -304.000000)" fill="#FFFFFF" fill-rule="nonzero">
            <g id="Newsletter-subscription-box">
                <g>
                    <g id="Group-3" transform="translate(520.000000, 76.000000)">
                        <g id="Buttons" transform="translate(0.000000, 220.000000)">
                            <g id="mail" transform="translate(9.000000, 8.000000)">
                                <path d="M37.5801573,16.8250246 L28.955372,1.60317421 C28.5347757,0.860224187 27.8544888,0.329824173 27.0395695,0.109474168 C26.7369064,0.0277991655 26.4291222,-0.00857583542 26.124381,0.00169916484 C25.6133865,0.0188741653 25.1111498,0.164899169 24.6568583,0.432124176 L1.57029836,14.0134245 C0.560481233,14.6076495 -0.00461854485,15.6913246 2.84348256e-05,16.8017746 C0.00235799562,17.3380996 0.13862319,17.8806496 0.419837146,18.3772996 L7.23265157,30.4001 L3.95842753,30.4001 C3.52083516,30.4001 3.16673863,30.757925 3.16673863,31.20005 C3.16673863,31.642175 3.52083516,32 3.95842753,32 L34.0416411,32 C34.4792335,32 34.83333,31.642175 34.83333,31.20005 C34.83333,30.757925 34.4792335,30.4001 34.0416411,30.4001 L20.7704799,30.4001 L36.4298445,21.1880747 C37.4401069,20.5938497 38.0048356,19.5101747 37.9999688,18.3999496 C37.9976364,17.8637746 37.8614455,17.3213746 37.5801573,16.8250246 Z M2.36658881,15.3952996 L25.4362269,1.82359921 L19.9663965,17.4070246 C19.8318383,17.6812246 19.6285538,17.9070496 19.3765077,18.0625246 C19.1206023,18.2195746 18.8245446,18.2992246 18.6033735,18.2992246 C18.6018149,18.2992246 18.6010727,18.2992246 18.6010727,18.2992246 L1.80579371,16.0139746 C1.93879329,15.7689496 2.1120193,15.5450746 2.36658881,15.3952996 Z M35.6334798,19.8046997 L17.6236891,30.39995 L9.05790752,30.39995 L1.82249287,17.6306746 L18.4750497,19.8922247 C18.501323,19.8929747 18.5284128,19.8929747 18.5546861,19.8929747 C19.1391569,19.8929747 19.7066317,19.7328497 20.199888,19.4288747 C20.6985622,19.1218247 21.101346,18.6804497 21.3688296,18.1491496 C21.3959193,18.1038496 21.4183333,18.0561496 21.4360715,18.0053746 L27.0942685,1.88524921 C27.2883499,2.01882422 27.4599431,2.18337422 27.5807709,2.39689923 L36.2055561,17.6195746 C36.6392892,18.3835996 36.3818251,19.3640747 35.6334798,19.8046997 Z" id="Shape"></path>
                            </g>
                        </g>
                    </g>
                </g>
            </g>
        </g>
    </g>
</svg>