<?xml version="1.0" encoding="UTF-8"?>
<svg width="20px" height="19px" viewBox="0 0 20 19" version="1.1" xmlns="http://www.w3.org/2000/svg" xmlns:xlink="http://www.w3.org/1999/xlink">
    <!-- Generator: Sketch 63.1 (92452) - https://sketch.com -->
    <title>instagram</title>
    <desc>Created with Sketch.</desc>
    <g id="Symbols" stroke="none" stroke-width="1" fill="none" fill-rule="evenodd">
        <g id="Footer" transform="translate(-844.000000, -64.000000)" fill="#000000" fill-rule="nonzero">
            <g id="social">
                <g transform="translate(736.000000, 64.000000)">
                    <g id="instagram" transform="translate(118.000000, 9.500000) scale(1, -1) translate(-118.000000, -9.500000) translate(108.000000, 0.000000)">
                        <path d="M19.9491685,5.58606901 C19.9023057,4.57652273 19.7304249,3.88246873 19.4842048,3.28106163 C19.2301997,2.64268273 18.8394227,2.07114295 18.3274437,1.59601972 C17.8272186,1.11350213 17.2215141,0.738565102 16.5571931,0.501075958 C15.9203486,0.267211523 15.1934423,0.103955853 14.1305592,0.0594447565 C13.0597385,0.0111640095 12.719793,0 10.0038925,0 C7.287992,0 6.94804649,0.0111640095 5.88119462,0.0556751064 C4.81831156,0.100186203 4.08758899,0.263586813 3.45456069,0.497306307 C2.78230208,0.738565102 2.18056647,1.10973248 1.68034132,1.59601972 C1.17233115,2.07114295 0.777737891,2.64645238 0.527549019,3.27743692 C0.281328957,3.88246873 0.109448094,4.57275308 0.0625853676,5.58229936 C0.0117538312,6.59938493 0,6.92227156 0,9.50188483 C0,12.0814981 0.0117538312,12.4043847 0.0586165577,13.4177006 C0.105479284,14.4272469 0.277512746,15.1213009 0.523732808,15.722708 C0.777737891,16.3610869 1.17233115,16.9326267 1.68034132,17.4077499 C2.18056647,17.8902675 2.78627089,18.2652045 3.45059188,18.5026937 C4.08758899,18.7365581 4.81434275,18.8998138 5.87737841,18.9443249 C6.94407768,18.9889809 7.28417579,19 10.0000763,19 C12.7159768,19 13.0559223,18.9889809 14.1227742,18.9443249 C15.1856572,18.8998138 15.9163798,18.7365581 16.5494081,18.5026937 C17.8937727,18.0090121 18.9566558,16.9994658 19.4764198,15.722708 C19.7224873,15.1176762 19.8945207,14.4272469 19.9413834,13.4177006 C19.9882462,12.4043847 20,12.0814981 20,9.50188483 C20,6.92227156 19.9960312,6.59938493 19.9491685,5.58606901 Z M18.1477778,13.3434672 C18.1047313,14.2713856 17.9406355,14.7724616 17.8038635,15.1065122 C17.4677342,15.9342444 16.7760893,16.5911817 15.904626,16.9104436 C15.5529266,17.0403522 15.0215614,17.1962135 14.048435,17.236955 C12.993337,17.281611 12.6768991,17.2926301 10.0078613,17.2926301 C7.33882354,17.2926301 7.01841688,17.281611 5.96713505,17.236955 C4.99019242,17.1962135 4.4626434,17.0403522 4.11094406,16.9104436 C3.67727309,16.758207 3.28252723,16.5169482 2.96212057,16.201456 C2.62996007,15.8933581 2.37595499,15.5221907 2.21567536,15.1102819 C2.07890339,14.7762312 1.91480755,14.2713856 1.87191363,13.3472368 C1.82489831,12.3450849 1.81329708,12.0443814 1.81329708,9.50927918 C1.81329708,6.97417702 1.82489831,6.66984876 1.87191363,5.67146649 C1.91480755,4.74354805 2.07890339,4.2424721 2.21567536,3.90842146 C2.37595499,3.49636769 2.62996007,3.12157561 2.96608938,2.81710241 C3.29031225,2.50161014 3.6810893,2.26035134 4.11491287,2.10825968 C4.46661221,1.9783511 4.99813004,1.82248979 5.97110386,1.7816034 C7.0262019,1.73709231 7.34279235,1.7259283 10.0116775,1.7259283 C12.6846841,1.7259283 13.001122,1.73709231 14.0524038,1.7816034 C15.0293464,1.82248979 15.5568954,1.9783511 15.9085948,2.10825968 C16.3422658,2.26035134 16.7370116,2.50161014 17.0574183,2.81710241 C17.3895788,3.12520032 17.6435839,3.49636769 17.8038635,3.90842146 C17.9406355,4.2424721 18.1047313,4.74717276 18.1477778,5.67146649 C18.1946405,6.67361841 18.2063944,6.97417702 18.2063944,9.50927918 C18.2063944,12.0443814 18.1946405,12.3413153 18.1477778,13.3434672 Z" id="Shape"></path>
                        <path d="M10,4 C7.23963281,4 5,6.23948433 5,9 C5,11.7605157 7.23963281,14 10,14 C12.7605157,14 15,11.7605157 15,9 C15,6.23948433 12.7605157,4 10,4 Z M10,12.2433757 C8.20921456,12.2433757 6.7566243,10.7909339 6.7566243,9 C6.7566243,7.20906608 8.20921456,5.7566243 10,5.7566243 C11.7909339,5.7566243 13.2433757,7.20906608 13.2433757,9 C13.2433757,10.7909339 11.7909339,12.2433757 10,12.2433757 L10,12.2433757 Z" id="Shape"></path>
                        <path d="M17,5 C17,5.5522331 16.3283924,6 15.4999046,6 C14.6716076,6 14,5.5522331 14,5 C14,4.44763966 14.6716076,4 15.4999046,4 C16.3283924,4 17,4.44763966 17,5 L17,5 Z" id="Path"></path>
                    </g>
                </g>
            </g>
        </g>
    </g>
</svg>