<?xml version="1.0" encoding="UTF-8"?>
<svg width="22px" height="22px" viewBox="0 0 22 22" version="1.1" xmlns="http://www.w3.org/2000/svg" xmlns:xlink="http://www.w3.org/1999/xlink">
    <!-- Generator: Sketch 63.1 (92452) - https://sketch.com -->
    <title>search</title>
    <desc>Created with Sketch.</desc>
    <g id="Symbols" stroke="none" stroke-width="1" fill="none" fill-rule="evenodd">
        <g id="Header" transform="translate(-1479.000000, -43.000000)" fill="#B5B5B5" fill-rule="nonzero">
            <g id="search">
                <g transform="translate(1479.000000, 43.000000)">
                    <path d="M21.8657384,20.5695346 L15.4748931,14.1786909 C16.6870448,12.6822146 17.4166991,10.7797255 17.4166991,8.70836892 C17.4166991,3.90659938 13.5100988,0 8.70832807,0 C3.90655737,0 0,3.90659938 0,8.70836892 C0,13.5101385 3.90660034,17.4167378 8.70837104,17.4167378 C10.7797282,17.4167378 12.6822177,16.6870407 14.1786943,15.4749323 L20.5695396,21.865776 C20.7485909,22.0447413 21.0387167,22.0447413 21.2177679,21.865776 L21.8657814,21.2177198 C22.0447467,21.0387115 22.0447467,20.7484999 21.8657384,20.5695346 Z M8.70837104,15.5833857 C4.91727102,15.5833857 1.83335258,12.499468 1.83335258,8.70836892 C1.83335258,4.91726982 4.91727102,1.83335213 8.70837104,1.83335213 C12.4994711,1.83335213 15.5833895,4.91726982 15.5833895,8.70836892 C15.5833895,12.499468 12.4994711,15.5833857 8.70837104,15.5833857 Z" id="Shape"></path>
                </g>
            </g>
        </g>
    </g>
</svg>