<?xml version="1.0" encoding="UTF-8"?>
<svg width="22px" height="19px" viewBox="0 0 22 19" version="1.1" xmlns="http://www.w3.org/2000/svg" xmlns:xlink="http://www.w3.org/1999/xlink">
    <!-- Generator: Sketch 63.1 (92452) - https://sketch.com -->
    <title>twitter</title>
    <desc>Created with Sketch.</desc>
    <g id="Symbols" stroke="none" stroke-width="1" fill="none" fill-rule="evenodd">
        <g id="Footer" transform="translate(-790.000000, -64.000000)" fill="#000000" fill-rule="nonzero">
            <g id="social">
                <g transform="translate(736.000000, 64.000000)">
                    <g id="twitter" transform="translate(65.000000, 9.500000) scale(1, -1) rotate(-180.000000) translate(-65.000000, -9.500000) translate(54.000000, 0.000000)">
                        <path d="M0.322907971,16.900087 C2.38112943,18.274044 4.77652127,19 7.24972167,19 C10.8715245,19 14.1904298,17.5363947 16.5960108,14.8791035 C18.8978471,12.3358214 20.1640887,8.91846875 20.1011008,5.45044538 C20.9736681,4.66504869 22,3.16538925 22,1.70373287 C22,1.14343126 21.4219936,0.78776154 20.9532897,1.07327175 C20.133521,1.5799793 19.3860032,1.71250281 18.6171806,1.48545885 C17.0471152,-0.124312039 14.7100797,-0.463416319 12.7407823,0.653289154 C11.0197313,1.62772674 10.0628713,3.41094752 10.1490165,5.35982269 C7.24138504,4.98661309 4.55513742,3.45284833 2.68217442,1.069374 C2.37464538,0.680573406 1.79108124,0.726371973 1.54654008,1.16681776 C0.644331394,2.79217965 0.653594317,4.6757675 1.43816388,6.19686457 C1.06486809,6.26604964 0.834221312,6.59638398 0.834221312,6.95400258 C0.834221312,8.48289515 1.48818366,9.88803414 2.54137799,10.8468807 C2.34500403,11.045666 2.28016357,11.3409206 2.36352987,11.6040187 C2.82667601,13.067624 3.87523888,14.2116137 5.18594246,14.784583 C3.76037864,15.5007946 2.18382917,15.7395318 0.78049636,15.5582865 C0.0542832089,15.4549961 -0.304191905,16.4820533 0.322907971,16.900087 Z M7.43961159,15.0350135 C7.95926156,14.6150309 7.68322646,13.7399859 7.03111669,13.7253694 C5.88251426,13.700034 4.83673027,13.1046526 4.1855468,12.1682181 C4.49955988,12.1467805 4.82468847,12.0961097 5.13407009,12.0084103 C5.83897852,11.8076762 5.805632,10.7377437 5.08960806,10.5867059 C3.79001999,10.3119145 2.77017219,9.31603928 2.38761347,8.03367942 C2.73682566,8.12430212 3.0925219,8.17497287 3.44729184,8.18179393 C4.15034769,8.18569168 4.41619357,7.23756391 3.84281865,6.84096782 C2.55064091,5.94545968 1.99949701,4.36394748 2.36445617,2.87695572 C4.62090417,5.28186768 7.68230017,6.73085637 10.920618,6.89456188 C11.3846904,6.92476945 11.7329763,6.46580935 11.6310842,6.00100262 C11.1910953,3.99463563 12.2563315,2.5885222 13.4003024,1.9405212 C14.5322316,1.2973924 16.3496171,1.09665825 17.7427607,2.63432076 C18.1568133,3.09328087 19.5536621,3.11082074 20.2641283,2.93639641 C19.9454837,3.56783197 19.4554751,4.16711108 18.9969604,4.50426649 C18.8015127,4.64848325 18.6894314,4.8881949 18.7014732,5.13862536 C18.8506062,8.33965282 17.7168245,11.522166 15.5909837,13.8695861 C13.4493959,16.2345461 10.4880395,17.5373692 7.25064796,17.5373692 C5.96310169,17.5373692 4.70056531,17.3171463 3.50750084,16.8922915 C4.93399096,16.6019091 6.28915657,15.9665758 7.43961159,15.0350135 Z" id="Shape"></path>
                    </g>
                </g>
            </g>
        </g>
    </g>
</svg>