<?xml version="1.0" encoding="UTF-8"?>
<svg width="24px" height="17px" viewBox="0 0 24 17" version="1.1" xmlns="http://www.w3.org/2000/svg" xmlns:xlink="http://www.w3.org/1999/xlink">
    <!-- Generator: Sketch 63.1 (92452) - https://sketch.com -->
    <title>youtube</title>
    <desc>Created with Sketch.</desc>
    <g id="Symbols" stroke="none" stroke-width="1" fill="none" fill-rule="evenodd">
        <g id="Footer" transform="translate(-736.000000, -64.000000)" fill="#000000" fill-rule="nonzero">
            <g id="social">
                <g transform="translate(736.000000, 64.000000)">
                    <g id="youtube" transform="translate(12.000000, 8.500000) scale(1, -1) translate(-12.000000, -8.500000) ">
                        <path d="M10.0772519,4.1002573 C9.60512299,3.82076319 9,4.15860287 9,4.70629838 L9,11.2937015 C9,11.8442202 9.60607294,12.1773545 10.0772519,11.9006836 L15.652553,8.61168736 C16.1161323,8.3378396 16.1151824,7.67345294 15.653503,7.39866413 L10.0772519,4.1002573 Z M10.4249364,10.0524465 L10.4249364,5.94943545 L13.8970314,8.00376416 L10.4249364,10.0524465 Z" id="Shape"></path>
                        <path d="M19.904,0.476352036 C15.251,-0.158784012 8.751,-0.158784012 4.096,0.476352036 C2.234,0.730038794 0.767,2.07384328 0.447,3.81839932 C-0.149,7.0565821 -0.149,9.94364769 0.447,13.1809113 C0.767,14.9263865 2.234,16.2692718 4.096,16.5229586 C6.428,16.8409862 9.22,17 12.011,17 C14.797,17 17.582,16.8419054 19.905,16.5238778 C21.765,16.270191 23.231,14.9273057 23.553,13.1818305 C24.149,9.94364769 24.149,7.05566294 23.553,3.81748016 C23.233,2.07384328 21.766,0.730038794 19.904,0.476352036 Z M22.074,12.9520417 C21.861,14.1065003 20.901,14.994404 19.684,15.1598519 C15.166,15.7766048 8.846,15.7766048 4.316,15.1589327 C3.098,14.9925657 2.137,14.1055812 1.925,12.9511226 C1.351,9.83151079 1.351,7.168719 1.925,4.04726889 C2.138,2.89281032 3.098,2.00674498 4.317,1.83945878 C6.579,1.53154188 9.29,1.37712386 11.999,1.37712386 C14.71,1.37712386 17.421,1.53154188 19.683,1.83945878 C20.901,2.00582582 21.862,2.89281032 22.074,4.04726889 C22.648,7.168719 22.648,9.83151079 22.074,12.9520417 Z" id="Shape"></path>
                    </g>
                </g>
            </g>
        </g>
    </g>
</svg>